<?xml version="1.0" encoding="UTF-8" standalone="no"?>
<svg
   xmlns:dc="http://purl.org/dc/elements/1.1/"
   xmlns:cc="http://creativecommons.org/ns#"
   xmlns:rdf="http://www.w3.org/1999/02/22-rdf-syntax-ns#"
   xmlns:svg="http://www.w3.org/2000/svg"
   xmlns="http://www.w3.org/2000/svg"
   xmlns:sodipodi="http://sodipodi.sourceforge.net/DTD/sodipodi-0.dtd"
   xmlns:inkscape="http://www.inkscape.org/namespaces/inkscape"
   width="152"
   height="152"
   viewBox="0 0 152 152"
   version="1.1"
   id="svg7"
   sodipodi:docname="temple.svg"
   inkscape:version="0.92.4 (unknown)">
  <metadata
     id="metadata13">
    <rdf:RDF>
      <cc:Work
         rdf:about="">
        <dc:format>image/svg+xml</dc:format>
        <dc:type
           rdf:resource="http://purl.org/dc/dcmitype/StillImage" />
      </cc:Work>
    </rdf:RDF>
  </metadata>
  <defs
     id="defs11" />
  <sodipodi:namedview
     pagecolor="#ffffff"
     bordercolor="#666666"
     borderopacity="1"
     objecttolerance="10"
     gridtolerance="10"
     guidetolerance="10"
     inkscape:pageopacity="0"
     inkscape:pageshadow="2"
     inkscape:window-width="1600"
     inkscape:window-height="845"
     id="namedview9"
     showgrid="false"
     inkscape:zoom="4.3915053"
     inkscape:cx="75.771138"
     inkscape:cy="98.563731"
     inkscape:window-x="0"
     inkscape:window-y="27"
     inkscape:window-maximized="1"
     inkscape:current-layer="svg7" />
  <g
     fill-rule="evenodd"
     id="g5">
    <g
       id="temple"
       fill="#000">
      <path
         d="M152 150v2H0v-2h28v-8H8v-20H0v-2h8V80h42v20h20v42H30v8h90v-8H80v-42h20V80h42v40h8V30h-8v40h-42V50H80V8h40V0h2v8h20v20h8V0h2v150zm-2 0v-28h-8v20h-20v8h28zM82 30v18h18V30H82zm20 18h20v20h18V30h-20V10H82v18h20v20zm0 2v18h18V50h-18zm20-22h18V10h-18v18zm-54 92v-18H50v18h18zm-20-18H28V82H10v38h20v20h38v-18H48v-20zm0-2V82H30v18h18zm-20 22H10v18h18v-18zm54 0v18h38v-20h20V82h-18v20h-20v20H82zm18-20H82v18h18v-18zm2-2h18V82h-18v18zm20 40v-18h18v18h-18zM30 0h-2v8H8v20H0v2h8v40h42V50h20V8H30V0zm20 48h18V30H50v18zm18-20H48v20H28v20H10V30h20V10h38v18zM30 50h18v18H30V50zm-2-40H10v18h18V10z"
         id="path2" />
    </g>
  </g>
  <path
     style="opacity:1;fill:none;fill-opacity:1;stroke:none;stroke-width:12.17136002;stroke-linejoin:round;stroke-miterlimit:4;stroke-dasharray:none;stroke-opacity:1"
     d="m 122.11525,57.901695 v -9.983051 h -9.98305 -9.98305 V 37.935593 27.952542 H 92.166102 82.183051 V 19.09661 10.240678 h 18.838979 18.83899 v 9.983051 9.983051 h 9.98305 9.98305 v 18.838983 18.838983 h -8.85593 -8.85594 z"
     id="path820"
     inkscape:connector-curvature="0" />
  <path
     style="opacity:1;fill:#2c001e;fill-opacity:1;stroke:none;stroke-width:4.30322552;stroke-linejoin:round;stroke-miterlimit:4;stroke-dasharray:none;stroke-opacity:1"
     d="m 81.777341,9.6769091 c -0.384528,0.7649829 -0.07048,1.7054189 -0.172118,2.5408609 0,5.237384 0,10.474768 0,15.712152 0.194743,0.837819 1.257939,0.386526 1.866174,0.499899 6.019552,0 12.039104,2e-6 18.058653,0 0,6.51293 0,13.02586 0,19.538788 0.19475,0.837819 1.25794,0.386526 1.86618,0.499899 6.0575,0 12.11501,0 18.17251,0 0,6.474978 0,12.949955 0,19.424932 0.19474,0.837819 1.25794,0.386526 1.86617,0.499899 5.50305,2e-6 11.0061,0 16.50915,0 0.83782,-0.194743 0.38653,-1.257938 0.4999,-1.866173 0,-12.144214 0,-24.288428 0,-36.432642 -0.19441,-0.836564 -1.25679,-0.388696 -1.86461,-0.503884 -6.03957,-0.01763 -12.07914,-0.0352 -18.11871,-0.05272 -0.0188,-6.494992 -0.0377,-12.989983 -0.0567,-19.484973 -0.19686,-0.8359715 -1.25803,-0.3848621 -1.86618,-0.4983434 -12.14421,0 -24.288423,0 -36.432637,0 -0.109261,0.040769 -0.218521,0.081538 -0.327782,0.1223055 z"
     id="path844"
     inkscape:connector-curvature="0" />
  <path
     style="opacity:1;fill:#2c001e;fill-opacity:1;stroke:none;stroke-width:4.30322552;stroke-linejoin:round;stroke-miterlimit:4;stroke-dasharray:none;stroke-opacity:1"
     d="m 9.7063815,81.634013 c -0.3845288,0.764983 -0.07048,1.705419 -0.1721185,2.54086 0,11.916947 0,23.833897 0,35.750837 0.1947435,0.83782 1.257939,0.38653 1.866174,0.4999 6.057504,0 12.115009,0 18.172514,0 -1e-6,6.51293 -1e-6,13.02586 0,19.53879 0.194743,0.83782 1.257938,0.38653 1.866173,0.4999 12.182611,0 24.365222,0 36.547833,0 0.837818,-0.19474 0.386525,-1.25794 0.499899,-1.86617 10e-7,-5.50305 0,-11.0061 0,-16.50915 -0.194743,-0.83782 -1.257939,-0.38653 -1.866173,-0.4999 -6.057505,0 -12.115009,0 -18.172514,0 10e-7,-6.51293 0,-13.02586 0,-19.53879 -0.194743,-0.83782 -1.257939,-0.38652 -1.866174,-0.4999 -6.057504,0 -12.115008,0 -18.172513,0 0,-6.512926 1e-6,-13.025855 0,-19.538784 -0.194743,-0.837818 -1.257939,-0.386525 -1.866174,-0.4999 -5.503048,0 -11.006097,0 -16.509145,0 -0.1092607,0.04077 -0.2185211,0.08154 -0.3277815,0.122307 z"
     id="path846"
     inkscape:connector-curvature="0" />
  <path
     style="opacity:1;fill:#2c001e;fill-opacity:1;stroke:none;stroke-width:4.30322552;stroke-linejoin:round;stroke-miterlimit:4;stroke-dasharray:none;stroke-opacity:1"
     d="m 49.6699,29.715596 c -0.384529,0.764983 -0.07048,1.705419 -0.172119,2.540861 0,5.237384 0,10.474768 0,15.712152 0.194744,0.837819 1.257939,0.386526 1.866174,0.499899 5.541001,0 11.082001,2e-6 16.623002,0 0.837818,-0.194743 0.386525,-1.257938 0.499899,-1.866173 10e-7,-5.503048 0,-11.006097 0,-16.509145 -0.194743,-0.837819 -1.257939,-0.386526 -1.866173,-0.4999 -5.541001,0 -11.082002,0 -16.623002,0 -0.109261,0.04077 -0.218521,0.08154 -0.327781,0.122306 z"
     id="path848"
     inkscape:connector-curvature="0" />
  <path
     style="opacity:1;fill:#2c001e;fill-opacity:1;stroke:none;stroke-width:4.30322552;stroke-linejoin:round;stroke-miterlimit:4;stroke-dasharray:none;stroke-opacity:1"
     d="m 81.777341,101.6727 c -0.384528,0.76498 -0.07048,1.70542 -0.172118,2.54086 0,5.23738 0,10.47477 0,15.71215 0.194743,0.83782 1.257939,0.38653 1.866174,0.4999 5.503048,0 11.006097,0 16.509145,0 0.837818,-0.19474 0.386528,-1.25794 0.499898,-1.86617 0,-5.50305 0,-11.0061 0,-16.50915 -0.19474,-0.83781 -1.257937,-0.38652 -1.866172,-0.4999 -5.503048,0 -11.006097,0 -16.509145,0 -0.109261,0.0408 -0.218521,0.0815 -0.327782,0.12231 z"
     id="path850"
     inkscape:connector-curvature="0" />
  <path
     style="opacity:1;fill:#2c001e;fill-opacity:1;stroke:none;stroke-width:8.60645103;stroke-linejoin:round;stroke-miterlimit:4;stroke-dasharray:none;stroke-opacity:1"
     d="M 9.7985339,9.8575669 C 9.5006492,14.020391 9.7560179,18.285456 9.6708904,22.487597 c 0.1048305,1.935253 -0.2135537,3.960758 0.1663368,5.837353 4.1628238,0.297884 8.4278888,0.04252 12.6300298,0.127643 1.935253,-0.10483 3.960759,0.213554 5.837353,-0.166336 0.297885,-4.162825 0.04252,-8.427889 0.127643,-12.630031 -0.10483,-1.935252 0.213554,-3.960758 -0.166336,-5.8373525 C 24.103093,9.5209889 19.838028,9.7763576 15.635887,9.6912301 13.705998,9.7962733 11.667203,9.4774096 9.7985339,9.8575669 Z"
     id="path852"
     inkscape:connector-curvature="0" />
  <path
     style="opacity:1;fill:#2c001e;fill-opacity:1;stroke:none;stroke-width:8.60645103;stroke-linejoin:round;stroke-miterlimit:4;stroke-dasharray:none;stroke-opacity:1"
     d="m 121.83301,121.86927 c -0.29788,4.16283 -0.0425,8.42789 -0.12764,12.63003 0.10483,1.93526 -0.21356,3.96076 0.16634,5.83736 4.16282,0.29788 8.42788,0.0425 12.63003,0.12764 1.93525,-0.10483 3.96075,0.21355 5.83735,-0.16634 0.29788,-4.16282 0.0425,-8.42789 0.12764,-12.63003 -0.10483,-1.93525 0.21356,-3.96076 -0.16634,-5.83735 -4.16282,-0.29788 -8.42788,-0.0425 -12.63003,-0.12764 -1.92988,0.10504 -3.96868,-0.21382 -5.83735,0.16633 z"
     id="path854"
     inkscape:connector-curvature="0" />
  <path
     style="opacity:1;fill:#2c001e;fill-opacity:1;stroke:none;stroke-width:8.60645103;stroke-linejoin:round;stroke-miterlimit:4;stroke-dasharray:none;stroke-opacity:1"
     d="m 101.79432,81.791899 c -0.29788,4.162824 -0.0425,8.427889 -0.12764,12.63003 0.10483,1.935253 -0.21355,3.960759 0.16634,5.837351 4.16282,0.29789 8.42789,0.0425 12.63003,0.12765 1.93525,-0.10483 3.96076,0.21355 5.83735,-0.16634 0.29789,-4.162825 0.0425,-8.42789 0.12764,-12.630031 -0.10483,-1.935253 0.21356,-3.960759 -0.16633,-5.837353 -4.16283,-0.297885 -8.42789,-0.04252 -12.63003,-0.127643 -1.92989,0.105043 -3.96869,-0.213821 -5.83736,0.166336 z"
     id="path856"
     inkscape:connector-curvature="0" />
  <path
     style="opacity:1;fill:#2c001e;fill-opacity:1;stroke:none;stroke-width:8.60645103;stroke-linejoin:round;stroke-miterlimit:4;stroke-dasharray:none;stroke-opacity:1"
     d="m 29.837221,49.684457 c -0.297438,4.200859 -0.04337,8.503635 -0.127643,12.743887 0.111017,1.971885 -0.222251,4.038517 0.166336,5.951209 4.162824,0.297884 8.427889,0.04252 12.63003,0.127643 1.935253,-0.10483 3.960759,0.213554 5.837353,-0.166337 0.297439,-4.200858 0.04337,-8.503634 0.127644,-12.743886 -0.111018,-1.971885 0.22225,-4.038517 -0.166337,-5.951209 -4.162824,-0.297885 -8.427889,-0.04252 -12.63003,-0.127643 -1.929889,0.105043 -3.968684,-0.213821 -5.837353,0.166336 z"
     id="path858"
     inkscape:connector-curvature="0" />
</svg>
